<mxfile host="app.diagrams.net" modified="2023-08-05T02:09:15.893Z" agent="Mozilla/5.0 (Windows NT 10.0; Win64; x64) AppleWebKit/537.36 (KHTML, like Gecko) Chrome/115.0.0.0 Safari/537.36 Edg/115.0.1901.188" version="21.6.6" etag="ygyos4MO_wF9IuJfP7-0" type="github">
  <diagram name="第 1 页" id="iS9p4aM6G4LNWK-n7UI4">
    <mxGraphModel>
      <root>
        <mxCell id="0" />
        <mxCell id="1" parent="0" />
      </root>
    </mxGraphModel>
  </diagram>
</mxfile>
